<svg xmlns="http://www.w3.org/2000/svg" xmlns:xlink="http://www.w3.org/1999/xlink" version="1.1" x="0px" y="0px" width="16px" height="16px" viewBox="0 0 16 16" style="enable-background:new 0 0 16 16;" xml:space="preserve">
<style type="text/css">
	.st0{fill:#FFFFFF;}
	.st1{fill:#CCCCCC;}
	.st2{fill:#888888;}
	.st3{fill:#BBBBBB;}
</style>
<g id="描述层">
</g>
<g id="_x31__ICON栅格系统">
	<g>
		<polygon class="st2" points="4,10 6,10 6,6 4,6 4,7 1,7 1,9 4,9   "/>
		<rect x="8" y="7" class="st2" width="7" height="2"/>
		<polygon class="st2" points="12,11 10,11 10,15 12,15 12,14 15,14 15,12 12,12   "/>
		<rect x="1" y="12" class="st2" width="7" height="2"/>
		<rect x="1" y="2" class="st2" width="7" height="2"/>
		<polygon class="st2" points="12,2 12,1 10,1 10,5 12,5 12,4 15,4 15,2   "/>
	</g>
</g>
</svg>